<svg xmlns="http://www.w3.org/2000/svg" width="16" height="14.235" viewBox="0 0 16 14.235">
  <path id="heart" d="M8,14.235A.938.938,0,0,1,7.382,14c-.646-.565-1.27-1.1-1.819-1.565l0,0A33.836,33.836,0,0,1,1.587,8.707,5.955,5.955,0,0,1,0,4.809,5,5,0,0,1,1.269,1.393,4.3,4.3,0,0,1,4.47,0,4.025,4.025,0,0,1,6.984.868,5.143,5.143,0,0,1,8,1.929,5.144,5.144,0,0,1,9.017.868,4.025,4.025,0,0,1,11.531,0a4.3,4.3,0,0,1,3.2,1.393A5,5,0,0,1,16,4.809a5.955,5.955,0,0,1-1.587,3.9,33.832,33.832,0,0,1-3.972,3.728c-.551.469-1.175,1-1.823,1.568A.939.939,0,0,1,8,14.235ZM4.47.937A3.376,3.376,0,0,0,1.958,2.028,4.068,4.068,0,0,0,.937,4.809a5.011,5.011,0,0,0,1.371,3.3,33.3,33.3,0,0,0,3.859,3.613l0,0c.552.47,1.178,1,1.829,1.573.655-.57,1.282-1.1,1.835-1.576a33.305,33.305,0,0,0,3.858-3.613,5.011,5.011,0,0,0,1.371-3.3,4.068,4.068,0,0,0-1.021-2.78A3.375,3.375,0,0,0,11.531.937a3.108,3.108,0,0,0-1.941.672A4.548,4.548,0,0,0,8.508,2.861a.592.592,0,0,1-1.016,0A4.544,4.544,0,0,0,6.41,1.609,3.108,3.108,0,0,0,4.47.937Zm0,0" transform="translate(0 0)" fill="#8e95a4"/>
</svg>
