<svg xmlns="http://www.w3.org/2000/svg" width="11.563" height="16" viewBox="0 0 11.563 16"><defs><style>.a{fill:#676f81;}</style></defs><g transform="translate(-71)"><g transform="translate(71)"><g transform="translate(0)"><path class="a" d="M154.281,11.281A3.285,3.285,0,0,0,157.563,8a.625.625,0,1,0-1.25,0,2.031,2.031,0,0,1-4.063,0V3.281a2.031,2.031,0,0,1,4.063,0V4.875a.625.625,0,1,0,1.25,0V3.281a3.281,3.281,0,0,0-6.563,0V8A3.285,3.285,0,0,0,154.281,11.281Z" transform="translate(-148.5)"/><path class="a" d="M82.563,236.625a.625.625,0,0,0-1.25,0,4.531,4.531,0,1,1-9.063,0,.625.625,0,0,0-1.25,0,5.79,5.79,0,0,0,5.156,5.748v1H74.313a.625.625,0,0,0,0,1.25h5a.625.625,0,0,0,0-1.25H77.406v-1A5.79,5.79,0,0,0,82.563,236.625Z" transform="translate(-71 -228.625)"/></g></g></g></svg>