<svg xmlns="http://www.w3.org/2000/svg" width="15.588" height="14.181" viewBox="0 0 15.588 14.181"><defs><style>.a{fill:#fff;}</style></defs><g transform="translate(82.829 -210)"><path class="a" d="M19.269,6.084a1.363,1.363,0,0,0-.232-.185L13.54.4A1.374,1.374,0,0,0,11.6,2.345l4.734,4.733-4.758,4.758a1.373,1.373,0,1,0,1.942,1.942l5.521-5.52a1.426,1.426,0,0,0,.232-2.175Z" transform="translate(-94 210)"/><path class="a" d="M19.269,6.084a1.363,1.363,0,0,0-.232-.185L13.54.4A1.374,1.374,0,0,0,11.6,2.345l4.734,4.733-4.758,4.758a1.373,1.373,0,1,0,1.942,1.942l5.521-5.52a1.426,1.426,0,0,0,.232-2.175Z" transform="translate(-86.91 210)"/></g></svg>