<svg id="star" xmlns="http://www.w3.org/2000/svg" width="20" height="19.166" viewBox="0 0 20 19.166">
  <path id="star-2" data-name="star" d="M4.477,19.659a1.065,1.065,0,0,1-1.036-1.3l1.287-5.668L.364,8.864A1.064,1.064,0,0,1,.967,7L6.74,6.48,9.023,1.138a1.063,1.063,0,0,1,1.955,0L13.261,6.48,19.033,7a1.064,1.064,0,0,1,.6,1.86L15.274,12.69l1.287,5.668a1.063,1.063,0,0,1-1.582,1.148L10,16.531,5.022,19.508a1.065,1.065,0,0,1-.545.151ZM10,15.25a1.066,1.066,0,0,1,.545.151l4.7,2.81L14.03,12.861a1.063,1.063,0,0,1,.337-1.036l4.12-3.613-5.451-.5a1.062,1.062,0,0,1-.883-.644L10,2.032,7.846,7.073a1.059,1.059,0,0,1-.881.642l-5.452.5,4.12,3.613A1.061,1.061,0,0,1,5.97,12.86L4.757,18.21l4.7-2.809A1.065,1.065,0,0,1,10,15.25ZM6.7,6.583v0Zm6.607,0v0Zm0,0" transform="translate(-0.001 -0.492)" fill="#4884fc"/>
</svg>
